<svg id="Layer_1" data-name="Layer 1" xmlns="http://www.w3.org/2000/svg" xmlns:xlink="http://www.w3.org/1999/xlink" viewBox="0 0 340 340"><defs><style>.cls-1{fill:url(#linear-gradient);}.cls-2{fill:#fff;}.cls-3{fill:#f9f9f9;}.cls-4{fill:#f9f7f7;}</style><linearGradient id="linear-gradient" x1="4.31" y1="170" x2="335.69" y2="170" gradientUnits="userSpaceOnUse"><stop offset="0" stop-color="#0084ff"/><stop offset="1" stop-color="#0040bf"/></linearGradient></defs><title>Logo brand book</title><circle class="cls-1" cx="170" cy="170" r="165.69"/><path class="cls-2" d="M265.94,126.17a10.69,10.69,0,0,0-2.58-4A113.07,113.07,0,0,0,76.25,121a10.67,10.67,0,0,0-1.83,2.74,10.55,10.55,0,1,0,19.31,8.5,92.29,92.29,0,0,1,152.78,2,10.55,10.55,0,0,0,19.43-8.14Z"/><path class="cls-2" d="M170.07,101.65A83.07,83.07,0,0,0,87,184.71v.23c0,1.66.06,3.31.16,4.95a10.6,10.6,0,0,0,20.72-1.38c-.07-1.17-.11-2.36-.11-3.55v-.25a62.31,62.31,0,1,1,123.65,11c-.22,1.22-.48,2.43-.76,3.63,0,.11,0,.22,0,.33a10.6,10.6,0,0,0,20.23,4.44c.36-1.53.69-3.07,1-4.63a83.09,83.09,0,0,0-81.77-97.79Z"/><path class="cls-2" d="M171.67,247a11.35,11.35,0,0,0-2-.19,10.6,10.6,0,0,0-1.88.17,62.23,62.23,0,0,1-48.34-26c-.92-1.27-1.78-2.57-2.6-3.91a10.6,10.6,0,0,0-17,12c.61,1,1.23,1.9,1.88,2.83a83,83,0,0,0,65.58,35.81,10.71,10.71,0,0,0,2.35.27,11,11,0,0,0,2.23-.24,10.6,10.6,0,0,0-.2-20.77Z"/><path class="cls-3" d="M170.07,131.28a53.54,53.54,0,1,0,0,107.07,55.65,55.65,0,0,0,6.09-.34,53.81,53.81,0,0,0,12.27-2.89c-5.51-9.27-3.73-10.73-3.54-14.83.22-4.54-5.71-5.23-5.71-5.23h0a31.87,31.87,0,0,1-10.3,1.69h-.48a31.92,31.92,0,1,1,32.4-32.64c0,.24,0,.48,0,.72a31.7,31.7,0,0,1-1,8.09l0,.12s-1.93,7.63,5.63,6.52c4.94-.73,10.16,1.14,14.69,4.27a53.33,53.33,0,0,0,3.38-15.78c.06-1.07.1-2.15.1-3.23A53.55,53.55,0,0,0,170.07,131.28Z"/><path class="cls-4" d="M204.7,205.89c-.44,0-.87,0-1.3.06l-.92.11h0l-.76,0a10.66,10.66,0,0,1-10.52-12.38c0-.31.11-.62.19-.93s.25-.76.37-1.15a23.47,23.47,0,1,0-16.77,16.2,22.22,22.22,0,0,0,3-1l.39,0a10.43,10.43,0,0,1,1.38-.09,10.67,10.67,0,0,1,10.67,10.66c0,.19,0,.37,0,.56a13.49,13.49,0,0,0-.17,1.44c0,.11-.05.22-.07.33l0,0c0,.23,0,.46,0,.69a14.54,14.54,0,1,0,14.54-14.54Z"/></svg>